<svg width="837" height="234" viewBox="0 0 837 234" fill="none" xmlns="http://www.w3.org/2000/svg">
<path fill-rule="evenodd" clip-rule="evenodd" d="M63.3119 35.0004C63.0778 35.0025 62.8439 35.0165 62.6111 35.0422C62.1441 35.0975 61.6838 35.2002 61.237 35.3486C60.7933 35.4956 60.3652 35.6869 59.959 35.9197C59.1371 36.3916 58.4174 37.0263 57.8428 37.7861C57.7004 37.9743 57.5674 38.1696 57.4443 38.3712C57.3199 38.5696 57.2052 38.7741 57.1007 38.984C56.9984 39.1975 56.9067 39.4159 56.8259 39.6387C56.6617 40.0851 56.542 40.547 56.4686 41.0176C56.434 41.2531 56.4111 41.4902 56.3999 41.728C56.3895 41.8949 56.3849 42.0621 56.3862 42.2294V49.3609C56.3805 49.8375 56.4219 50.3134 56.5098 50.7816C56.6823 51.7163 57.0373 52.6066 57.5542 53.4002C57.9445 53.9986 58.4217 54.534 58.9696 54.9881C59.1505 55.1367 59.3385 55.2762 59.533 55.406C59.7285 55.5368 59.9303 55.6577 60.1376 55.7681C60.7628 56.1052 61.4345 56.3446 62.1302 56.4785C62.3622 56.5182 62.5961 56.5461 62.831 56.562C63.5302 56.6214 64.2342 56.5745 64.9197 56.4227C65.1516 56.3741 65.3809 56.3137 65.6068 56.2417C66.0504 56.0947 66.4785 55.9034 66.8848 55.6706C67.5016 55.3169 68.0622 54.8708 68.5475 54.3474C68.7075 54.1741 68.8588 53.9928 69.001 53.8042C69.2869 53.4308 69.5354 53.0295 69.743 52.6063C70.0531 51.9644 70.2661 51.2788 70.3751 50.5727C70.4366 50.1719 70.4641 49.7665 70.4576 49.3609V42.2294C70.4668 41.513 70.3696 40.7993 70.169 40.1122C70.1021 39.8856 70.0242 39.6625 69.9354 39.4437C69.8497 39.2254 69.7534 39.0116 69.6468 38.8029C69.5379 38.5928 69.4186 38.3882 69.2895 38.1901C68.6378 37.1938 67.7494 36.3796 66.7061 35.8222C66.4961 35.7091 66.2805 35.6068 66.0603 35.5158C65.6258 35.3359 65.1746 35.2006 64.7136 35.1118C64.4815 35.0721 64.2476 35.0442 64.0128 35.0283C63.7798 35.0072 63.5459 34.9979 63.3119 35.0004ZM23.5432 51.7288C20.6765 51.7293 18.0968 53.4926 17.0218 56.1862C15.9467 58.8799 16.5913 61.9653 18.6512 63.986L23.6257 69.0282C25.3904 70.8912 28.0108 71.6416 30.4764 70.9901C32.9419 70.3386 34.8674 68.3869 35.5102 65.8878C36.1529 63.3886 35.4126 60.7325 33.5746 58.9438L28.6001 53.9016C27.2745 52.5129 25.4497 51.7288 23.5432 51.7288ZM102.378 51.7984C102.611 51.768 102.845 51.7494 103.079 51.7427C103.549 51.7277 104.018 51.7604 104.481 51.8402C104.712 51.8796 104.942 51.9308 105.168 51.9934C106.768 52.4412 108.16 53.4476 109.098 54.8349C109.498 55.4251 109.809 56.0731 110.019 56.757C110.156 57.2109 110.248 57.6775 110.294 58.1499C110.363 58.8618 110.326 59.5803 110.184 60.281C110.092 60.7488 109.954 61.2061 109.771 61.646C109.681 61.8646 109.58 62.0784 109.469 62.2867C109.355 62.4925 109.231 62.6924 109.098 62.8857C108.966 63.0831 108.823 63.2737 108.672 63.4568C108.521 63.6413 108.36 63.8179 108.191 63.986L103.217 69.0282C102.942 69.3179 102.643 69.5835 102.323 69.8222C101.752 70.2402 101.122 70.5688 100.455 70.7972C100.008 70.9503 99.548 71.0577 99.0805 71.1175C98.6163 71.1834 98.1467 71.202 97.6788 71.1733C97.2137 71.1361 96.7534 71.0521 96.3047 70.9225C95.849 70.7961 95.407 70.6234 94.9855 70.4072C94.7784 70.3013 94.5766 70.1851 94.3809 70.059C94.1817 69.9296 93.989 69.7901 93.8037 69.6411C93.4377 69.3461 93.1017 69.0148 92.8006 68.6522C92.3458 68.1034 91.9752 67.4883 91.7012 66.8275C91.6078 66.609 91.5253 66.3858 91.4539 66.1589C91.3168 65.7051 91.2247 65.2385 91.1791 64.7661C91.0845 63.819 91.178 62.8623 91.4539 61.9525C91.5927 61.4938 91.7769 61.0504 92.0036 60.6292C92.1174 60.4235 92.2412 60.2236 92.3746 60.0303C92.6361 59.639 92.9353 59.2751 93.2678 58.9439L98.2422 53.9017C98.6864 53.4402 99.1903 53.0419 99.7401 52.7177C99.9406 52.596 100.147 52.4844 100.358 52.3834C100.574 52.284 100.794 52.1957 101.018 52.1188C101.46 51.9665 101.916 51.8592 102.378 51.7984ZM63.4213 70.7554C47.8794 70.7554 35.2784 83.5279 35.2784 99.2814C35.2784 107.29 38.5975 114.468 43.8532 119.631C48.9541 99.8484 66.5962 85.2174 87.6752 85.0462C82.7995 76.5455 73.8201 70.7554 63.4213 70.7554ZM96.2915 100.424C104.948 90.6397 117.295 85.0403 130.261 85.0184C152.019 85.0416 170.749 100.601 175.045 122.222C189.864 127.061 199.013 142.103 196.622 157.697C194.23 173.291 181.008 184.808 165.439 184.859H66.9394C51.2516 184.845 37.94 173.188 35.6477 157.457C33.3554 141.726 42.7737 126.666 57.7875 122.055C61.8325 108.543 74.1157 99.2981 88.0465 99.2814C90.8324 99.2927 93.6047 99.6768 96.2915 100.424ZM7.13591 92.1499C4.59858 92.1135 2.23849 93.4647 0.959352 95.6862C-0.319784 97.9076 -0.319784 100.655 0.959352 102.877C2.23849 105.098 4.59858 106.449 7.13591 106.413H14.1716C16.7089 106.449 19.069 105.098 20.3482 102.877C21.6273 100.655 21.6273 97.9076 20.3482 95.6862C19.069 93.4647 16.7089 92.1135 14.1716 92.1499H7.13591ZM27.7619 127.445C27.9942 127.41 28.2281 127.387 28.4627 127.376C28.6964 127.368 28.9303 127.373 29.1636 127.389C29.3986 127.41 29.6325 127.443 29.8644 127.487C31.738 127.814 33.4013 128.896 34.4756 130.486C35.5498 132.076 35.9436 134.039 35.5672 135.928C35.5188 136.158 35.4591 136.386 35.3885 136.61C35.2497 137.069 35.0655 137.512 34.8389 137.933C34.6166 138.349 34.3543 138.741 34.0556 139.103C33.9038 139.283 33.7433 139.455 33.5746 139.619L28.6001 144.661C28.4851 144.781 28.366 144.897 28.2429 145.009C27.8912 145.326 27.5091 145.606 27.1023 145.845C26.9018 145.967 26.6954 146.078 26.4839 146.179C26.0559 146.377 25.6094 146.531 25.151 146.639C24.4669 146.8 23.7628 146.856 23.0623 146.806C22.8274 146.79 22.5935 146.762 22.3614 146.722C21.4328 146.564 20.5449 146.218 19.7505 145.706C19.5513 145.576 19.3587 145.437 19.1734 145.288C18.9917 145.139 18.8174 144.981 18.6512 144.814C18.4825 144.651 18.322 144.479 18.1702 144.299C17.7154 143.75 17.3448 143.135 17.0709 142.474C16.9775 142.256 16.895 142.033 16.8236 141.806C16.7571 141.576 16.7021 141.344 16.6587 141.109C16.5624 140.647 16.5118 140.175 16.5075 139.702C16.5096 139.465 16.5233 139.228 16.5487 138.992C16.5935 138.515 16.6856 138.044 16.8236 137.585C16.9633 137.131 17.1474 136.693 17.3732 136.276C17.5998 135.86 17.8668 135.468 18.1702 135.106C18.3217 134.921 18.4822 134.745 18.6512 134.577L23.6257 129.534C24.733 128.386 26.1904 127.65 27.7619 127.445Z" fill="white"/>
<path d="M296.137 161.172H346.527V185H267.426V42.8125H296.137V161.172ZM412.348 175.332C406.618 183.079 398.936 186.953 389.301 186.953C379.6 186.953 372.243 183.633 367.23 176.992C362.217 170.286 359.711 160.553 359.711 147.793V79.3359H387.348V148.477C387.478 158.763 390.896 163.906 397.602 163.906C403.917 163.906 408.474 161.172 411.273 155.703V79.3359H439.105V185H413.129L412.348 175.332ZM465.18 185V100.137H452.387V79.3359H465.18V69.8633C465.245 58.2096 468.305 49.1602 474.359 42.7148C480.479 36.2044 488.91 32.9492 499.652 32.9492C502.908 32.9492 507.074 33.6003 512.152 34.9023L511.957 56.9727C510.069 56.3867 507.823 56.0938 505.219 56.0938C497.016 56.0938 492.914 60.9766 492.914 70.7422V79.3359H509.418V100.137H492.914V185H465.18ZM556.586 53.3594V79.3359H570.746V100.137H556.586V152.578C556.586 156.745 557.139 159.609 558.246 161.172C559.418 162.734 561.632 163.516 564.887 163.516C567.556 163.516 569.737 163.288 571.43 162.832L571.234 184.316C566.547 186.074 561.469 186.953 556 186.953C538.161 186.953 529.145 176.732 528.949 156.289V100.137H516.742V79.3359H528.949V53.3594H556.586ZM582.66 128.945C582.66 111.628 585.785 98.7044 592.035 90.1758C598.285 81.6471 607.042 77.3828 618.305 77.3828C627.875 77.3828 635.264 81.1589 640.473 88.7109L641.547 79.3359H666.449V185C666.449 198.477 662.673 208.763 655.121 215.859C647.569 223.021 636.729 226.602 622.602 226.602C616.807 226.602 610.72 225.43 604.34 223.086C597.96 220.807 593.207 217.878 590.082 214.297L599.359 195.156C601.964 197.891 605.349 200.104 609.516 201.797C613.682 203.555 617.621 204.434 621.332 204.434C627.517 204.434 631.944 202.936 634.613 199.941C637.348 197.012 638.747 192.259 638.812 185.684V176.602C633.539 183.503 626.671 186.953 618.207 186.953C606.944 186.953 598.22 182.591 592.035 173.867C585.915 165.078 582.79 152.708 582.66 136.758V128.945ZM610.297 135.879C610.297 145.645 611.566 152.773 614.105 157.266C616.645 161.693 620.681 163.906 626.215 163.906C631.879 163.906 636.078 161.855 638.812 157.754V107.266C635.948 102.773 631.814 100.527 626.41 100.527C620.941 100.527 616.872 102.773 614.203 107.266C611.599 111.758 610.297 118.984 610.297 128.945V135.879ZM738.52 175.332C732.79 183.079 725.108 186.953 715.473 186.953C705.772 186.953 698.415 183.633 693.402 176.992C688.389 170.286 685.883 160.553 685.883 147.793V79.3359H713.52V148.477C713.65 158.763 717.068 163.906 723.773 163.906C730.089 163.906 734.646 161.172 737.445 155.703V79.3359H765.277V185H739.301L738.52 175.332ZM817.133 53.3594V79.3359H831.293V100.137H817.133V152.578C817.133 156.745 817.686 159.609 818.793 161.172C819.965 162.734 822.178 163.516 825.434 163.516C828.103 163.516 830.284 163.288 831.977 162.832L831.781 184.316C827.094 186.074 822.016 186.953 816.547 186.953C798.708 186.953 789.691 176.732 789.496 156.289V100.137H777.289V79.3359H789.496V53.3594H817.133Z" fill="white"/>
</svg>
